<?xml version="1.0" encoding="UTF-8" standalone="no"?>
<!DOCTYPE svg PUBLIC "-//W3C//DTD SVG 1.1//EN" "http://www.w3.org/Graphics/SVG/1.1/DTD/svg11.dtd">
<svg width="100%" height="100%" viewBox="0 0 3508 3508" version="1.1" xmlns="http://www.w3.org/2000/svg" xmlns:xlink="http://www.w3.org/1999/xlink" xml:space="preserve" xmlns:serif="http://www.serif.com/" style="fill-rule:evenodd;clip-rule:evenodd;stroke-linecap:round;stroke-linejoin:round;stroke-miterlimit:1.5;">
    <g transform="matrix(52.004029,0,0,52.004029,-1232.328429,-1360.841084)">
        <g transform="matrix(1.084133,0,0,0.633167,-24.626641,26.244875)">
            <rect x="55.5" y="20.499" width="1" height="85.879" style="fill:rgb(74,90,96);"/>
        </g>
        <g transform="matrix(0.78864,0,0,0.78864,12.704883,10.840639)">
            <path d="M51.299,39.857C51.299,39.857 41.061,27.874 19.922,31.346C19.922,31.346 29.085,39.821 50.401,40.983L51.299,39.857Z" style="fill:url(#_Linear1);stroke:rgb(196,166,154);stroke-width:0.02px;"/>
        </g>
        <g transform="matrix(1.084133,0,0,0.635682,15.116301,25.977325)">
            <rect x="55.5" y="20.499" width="1" height="85.879" style="fill:rgb(74,90,96);"/>
        </g>
        <g transform="matrix(1.084133,0,0,0.785199,-4.779129,10.072043)">
            <rect x="55.5" y="20.499" width="1" height="85.879" style="fill:rgb(74,90,96);"/>
        </g>
        <g transform="matrix(0,-1.084133,0.785199,0,7.485815,153.793682)">
            <rect x="55.5" y="20.499" width="1" height="85.879" style="fill:rgb(74,90,96);"/>
        </g>
        <g transform="matrix(0.745308,0,0,0.903034,53.101143,-5.690641)">
            <path d="M39.006,66.191L39.006,91.277C39.006,92.486 37.816,93.468 36.351,93.468L24.635,93.468C23.17,93.468 21.98,92.486 21.98,91.277L21.98,66.191C21.98,64.982 23.17,64 24.635,64L36.351,64C37.816,64 39.006,64.982 39.006,66.191Z" style="fill:rgb(143,168,145);"/>
        </g>
        <g transform="matrix(0.78864,0,0,0.633655,-8.177843,32.964068)">
            <path d="M64.171,46.781L64.171,78.05C64.171,79.864 62.987,81.336 61.53,81.336L50.72,81.336C49.263,81.336 48.08,79.864 48.08,78.05L48.08,46.781C48.08,44.968 49.263,43.495 50.72,43.495L61.53,43.495C62.987,43.495 64.171,44.968 64.171,46.781Z" style="fill:rgb(184,201,190);"/>
        </g>
        <g transform="matrix(0.745308,0,0,1.054023,33.452287,-23.103561)">
            <path d="M39.006,65.468L39.006,92C39.006,92.81 38.076,93.468 36.93,93.468L24.056,93.468C22.91,93.468 21.98,92.81 21.98,92L21.98,65.468C21.98,64.658 22.91,64 24.056,64L36.93,64C38.076,64 39.006,64.658 39.006,65.468Z" style="fill:rgb(107,128,115);"/>
        </g>
        <g transform="matrix(0.78864,0,0,0.78864,11.916243,10.052)">
            <path d="M59.716,40.983C59.716,40.983 74.009,24.73 100.296,27.242C100.296,27.242 86.727,38.751 59.716,40.983Z" style="fill:url(#_Linear2);stroke:rgb(196,166,154);stroke-width:0.02px;"/>
        </g>
        <g transform="matrix(0.852067,0,0,0.852067,16.22659,24.366535)">
            <ellipse cx="46.889" cy="23.458" rx="5.385" ry="5.105" style="fill:url(#_Linear3);"/>
        </g>
        <g transform="matrix(0.99585,0,0,0.99585,0.317232,0.390963)">
            <circle cx="56.094" cy="44.146" r="3.164" style="fill:rgb(30,37,48);"/>
        </g>
    </g>
    <defs>
        <linearGradient id="_Linear1" x1="0" y1="0" x2="1" y2="0" gradientUnits="userSpaceOnUse" gradientTransform="matrix(31.377006,9.284748,-9.284748,31.377006,19.922221,30.715036)"><stop offset="0" style="stop-color:rgb(196,166,154);stop-opacity:1"/><stop offset="1" style="stop-color:rgb(196,166,154);stop-opacity:1"/></linearGradient>
        <linearGradient id="_Linear2" x1="0" y1="0" x2="1" y2="0" gradientUnits="userSpaceOnUse" gradientTransform="matrix(40.579976,-14.0044,14.0044,40.579976,59.716297,40.982528)"><stop offset="0" style="stop-color:rgb(196,166,154);stop-opacity:1"/><stop offset="1" style="stop-color:rgb(196,166,154);stop-opacity:1"/></linearGradient>
        <linearGradient id="_Linear3" x1="0" y1="0" x2="1" y2="0" gradientUnits="userSpaceOnUse" gradientTransform="matrix(37.559204,-12.961913,12.961913,37.559204,50.212326,21.132023)"><stop offset="0" style="stop-color:rgb(196,166,154);stop-opacity:1"/><stop offset="1" style="stop-color:rgb(196,166,154);stop-opacity:1"/></linearGradient>
    </defs>
</svg>
