<?xml version="1.0" encoding="UTF-8" standalone="no"?>
<!DOCTYPE svg PUBLIC "-//W3C//DTD SVG 1.1//EN" "http://www.w3.org/Graphics/SVG/1.1/DTD/svg11.dtd">
<svg width="100%" height="100%" viewBox="0 0 1536 1024" version="1.1" xmlns="http://www.w3.org/2000/svg" xmlns:xlink="http://www.w3.org/1999/xlink" xml:space="preserve" xmlns:serif="http://www.serif.com/" style="fill-rule:evenodd;clip-rule:evenodd;stroke-linecap:round;stroke-linejoin:round;stroke-miterlimit:1.5;">
    <g transform="matrix(7.433729,0,0,7.433729,-3926.325185,-4531.989135)">
        <g transform="matrix(40.908122,0,0,40.908122,600.708466,683.092238)">
        </g>
        <g transform="matrix(40.908122,0,0,40.908122,613.11157,683.092238)">
        </g>
        <text x="600.708px" y="683.092px" style="font-family:'TimesNewRomanPS-BoldItalicMT', 'Times New Roman', serif;font-weight:700;font-style:italic;font-size:40.908px;fill:rgb(30,41,55);">ﬁn</text>
        <g transform="matrix(40.908122,0,0,40.908122,721.215645,683.092238)">
        </g>
        <text x="646.211px" y="683.092px" style="font-family:'TimesNewRomanPS-BoldItalicMT', 'Times New Roman', serif;font-weight:700;font-style:italic;font-size:40.908px;fill:rgb(101,128,97);">pilot</text>
    </g>
    <g transform="matrix(5.529188,0,0,3.229218,-155.109786,340.375095)">
        <rect x="55.5" y="20.499" width="1" height="85.879" style="fill:rgb(74,90,96);"/>
    </g>
    <g transform="matrix(4.022142,0,0,4.022142,35.284765,261.811934)">
        <path d="M51.299,39.857C51.299,39.857 41.061,27.874 19.922,31.346C19.922,31.346 29.085,39.821 50.401,40.983L51.299,39.857Z" style="fill:url(#_Linear1);stroke:rgb(196,166,154);stroke-width:0.25px;"/>
    </g>
    <g transform="matrix(5.529188,0,0,3.242045,47.583242,339.010565)">
        <rect x="55.5" y="20.499" width="1" height="85.879" style="fill:rgb(74,90,96);"/>
    </g>
    <g transform="matrix(5.529188,0,0,4.004594,-53.885463,257.892016)">
        <rect x="55.5" y="20.499" width="1" height="85.879" style="fill:rgb(74,90,96);"/>
    </g>
    <g transform="matrix(0,-5.529188,4.004594,0,8.666992,990.886919)">
        <rect x="55.5" y="20.499" width="1" height="85.879" style="fill:rgb(74,90,96);"/>
    </g>
    <g transform="matrix(3.801145,0,0,4.605567,241.309783,177.500732)">
        <path d="M39.006,66.191L39.006,91.277C39.006,92.486 37.816,93.468 36.351,93.468L24.635,93.468C23.17,93.468 21.98,92.486 21.98,91.277L21.98,66.191C21.98,64.982 23.17,64 24.635,64L36.351,64C37.816,64 39.006,64.982 39.006,66.191Z" style="fill:rgb(143,168,145);"/>
    </g>
    <g transform="matrix(4.022142,0,0,3.231706,-71.219248,374.643658)">
        <path d="M64.171,46.781L64.171,78.05C64.171,79.864 62.987,81.336 61.53,81.336L50.72,81.336C49.263,81.336 48.08,79.864 48.08,78.05L48.08,46.781C48.08,44.968 49.263,43.495 50.72,43.495L61.53,43.495C62.987,43.495 64.171,44.968 64.171,46.781Z" style="fill:rgb(184,201,190);"/>
    </g>
    <g transform="matrix(3.801145,0,0,5.375624,141.098626,88.693077)">
        <path d="M39.006,65.468L39.006,92C39.006,92.81 38.076,93.468 36.93,93.468L24.056,93.468C22.91,93.468 21.98,92.81 21.98,92L21.98,65.468C21.98,64.658 22.91,64 24.056,64L36.93,64C38.076,64 39.006,64.658 39.006,65.468Z" style="fill:rgb(107,128,115);"/>
    </g>
    <g transform="matrix(4.022142,0,0,4.022142,31.262623,257.789792)">
        <path d="M59.716,40.983C59.716,40.983 74.009,24.73 100.296,27.242C100.296,27.242 86.727,38.751 59.716,40.983Z" style="fill:url(#_Linear2);stroke:rgb(196,166,154);stroke-width:0.25px;"/>
    </g>
    <g transform="matrix(4.34563,0,0,4.34563,53.245828,330.795372)">
        <ellipse cx="46.889" cy="23.458" rx="5.385" ry="5.105" style="fill:url(#_Linear3);"/>
    </g>
    <g transform="matrix(5.078935,0,0,5.078935,-27.893507,208.517528)">
        <circle cx="56.094" cy="44.146" r="3.164" style="fill:rgb(30,37,48);"/>
    </g>
    <g transform="matrix(1.190919,0,0,1.190919,-242.045195,-82.800332)">
        <g transform="matrix(50.359812,0,0,50.359812,1417.925372,633.116738)">
        </g>
        <text x="609.291px" y="633.117px" style="font-family:'TimesNewRomanPS-BoldMT', 'Times New Roman', serif;font-weight:700;font-size:50.36px;fill:rgb(30,41,55);">R e a d   .   R e a s o n   .   R e s p o n d</text>
    </g>
    <g transform="matrix(0.779885,0,0,1,151.049517,-19.225124)">
        <path d="M911.084,601.277L911.084,603.357C911.084,603.931 910.486,604.396 909.75,604.396L536.57,604.396C535.834,604.396 535.237,603.931 535.237,603.357L535.237,601.277C535.237,600.704 535.834,600.238 536.57,600.238L909.75,600.238C910.486,600.238 911.084,600.704 911.084,601.277Z" style="fill:rgb(74,90,96);"/>
    </g>
    <g transform="matrix(0.032413,0,0,1,500.173279,-19.225124)">
        <path d="M911.084,601.277L911.084,603.357C911.084,603.931 896.711,604.396 879.008,604.396L567.313,604.396C549.61,604.396 535.237,603.931 535.237,603.357L535.237,601.277C535.237,600.704 549.61,600.238 567.313,600.238L879.008,600.238C896.711,600.238 911.084,600.704 911.084,601.277Z" style="fill:rgb(74,90,96);"/>
    </g>
    <g transform="matrix(1.427566,0,0,1,144.610488,-19.225124)">
        <path d="M911.084,601.277L911.084,603.357C911.084,603.931 910.757,604.396 910.355,604.396L535.965,604.396C535.563,604.396 535.237,603.931 535.237,603.357L535.237,601.277C535.237,600.704 535.563,600.238 535.965,600.238L910.355,600.238C910.757,600.238 911.084,600.704 911.084,601.277Z" style="fill:rgb(74,90,96);"/>
    </g>
    <defs>
        <linearGradient id="_Linear1" x1="0" y1="0" x2="1" y2="0" gradientUnits="userSpaceOnUse" gradientTransform="matrix(31.377006,9.284748,-9.284748,31.377006,19.922221,30.715036)"><stop offset="0" style="stop-color:rgb(196,166,154);stop-opacity:1"/><stop offset="1" style="stop-color:rgb(196,166,154);stop-opacity:1"/></linearGradient>
        <linearGradient id="_Linear2" x1="0" y1="0" x2="1" y2="0" gradientUnits="userSpaceOnUse" gradientTransform="matrix(40.579976,-14.0044,14.0044,40.579976,59.716297,40.982528)"><stop offset="0" style="stop-color:rgb(196,166,154);stop-opacity:1"/><stop offset="1" style="stop-color:rgb(196,166,154);stop-opacity:1"/></linearGradient>
        <linearGradient id="_Linear3" x1="0" y1="0" x2="1" y2="0" gradientUnits="userSpaceOnUse" gradientTransform="matrix(37.559204,-12.961913,12.961913,37.559204,50.212326,21.132023)"><stop offset="0" style="stop-color:rgb(196,166,154);stop-opacity:1"/><stop offset="1" style="stop-color:rgb(196,166,154);stop-opacity:1"/></linearGradient>
    </defs>
</svg>
